<svg width="60" height="60" viewBox="0 0 60 60" fill="none" xmlns="http://www.w3.org/2000/svg">
  <rect width="60" height="60" rx="14" fill="#25D366"/>
  <path d="M30 12C20.6 12 13 19.1 13 27.9c0 3.1 1 6 2.7 8.4L14 47l10.3-2.8c1.8.6 3.7.9 5.7.9 9.4 0 17-7.1 17-15.9S39.4 12 30 12Z" fill="white"/>
  <path d="M24.2 21.2c-.4-.9-.8-.9-1.2-.9h-1c-.3 0-.9.1-1.4.6-.5.5-1.8 1.8-1.8 4.3s1.8 5 2.1 5.3c.3.4 3.5 5.6 8.7 7.6 4.3 1.7 5.2 1.4 6.1 1.3.9-.1 3-1.2 3.4-2.4.4-1.2.4-2.2.3-2.4-.1-.2-.5-.4-1-.6l-3.5-1.7c-.5-.2-.9-.3-1.2.3-.4.5-1.4 1.7-1.7 2-.3.4-.6.4-1.1.1-.5-.2-2.2-.8-4.1-2.6-1.5-1.4-2.6-3-2.9-3.5-.3-.5 0-.8.2-1 .2-.2.5-.6.7-.8.2-.3.3-.5.5-.9.2-.4.1-.7 0-1l-1.6-3.7Z" fill="#25D366"/>
</svg>
